<?xml version="1.0" encoding="iso-8859-1"?>
<!-- Generator: Adobe Illustrator 19.0.0, SVG Export Plug-In . SVG Version: 6.00 Build 0)  -->
<svg version="1.1" id="Layer_1" xmlns="http://www.w3.org/2000/svg" xmlns:xlink="http://www.w3.org/1999/xlink" x="0px" y="0px"
	 viewBox="0 0 512 512" style="enable-background:new 0 0 512 512;" xml:space="preserve">
<g>
	<g>
		<g>
			<path d="M451.952,43.68H60.048C27.024,43.68,0,70.704,0,103.728v34.464v270.08c0,33.024,27.024,60.048,60.048,60.048h391.904
				c33.024,0,60.048-27.024,60.048-60.048v-270.08v-34.464C512,70.704,484.976,43.68,451.952,43.68z M496,408.272
				c0,24.288-19.76,44.048-44.048,44.048H60.048C35.76,452.32,16,432.56,16,408.272v-270.08h480V408.272z M496,122.192H16v-18.464
				C16,79.44,35.76,59.68,60.048,59.68h391.904C476.24,59.68,496,79.44,496,103.728V122.192z"/>
			<circle cx="58.4" cy="90.928" r="13.424"/>
			<circle cx="96.64" cy="90.928" r="13.424"/>
			<circle cx="134.896" cy="90.928" r="13.424"/>
			<polygon points="445.28,75.648 454.8,86.576 429.392,86.576 429.392,94.576 455.424,94.576 445.28,106.224 451.312,111.472 
				469.216,90.944 451.312,70.4 			"/>
			<path d="M379.264,69.568H208.336c-11.744,0-21.36,9.616-21.36,21.36c0,11.744,9.616,21.36,21.36,21.36h170.928
				c11.744,0,21.36-9.616,21.36-21.36C400.64,79.184,391.024,69.568,379.264,69.568z M379.264,96.304H208.336
				c-2.912,0-5.36-2.464-5.36-5.36c0-2.912,2.464-5.36,5.36-5.36h170.928c2.912,0,5.36,2.464,5.36,5.36
				C384.64,93.84,382.176,96.304,379.264,96.304z"/>
			<path d="M92.656,360.816h325.248c9.248,0,16.832-7.568,16.832-16.832v-99.952c0-9.248-7.568-16.832-16.832-16.832H92.656
				c-9.248,0-16.832,7.568-16.832,16.832v99.952C75.824,353.248,83.392,360.816,92.656,360.816z M91.824,244.048
				c0-0.416,0.416-0.832,0.832-0.832h325.248c0.416,0,0.832,0.416,0.832,0.832V344c0,0.416-0.416,0.832-0.832,0.832H92.656
				c-0.416,0-0.832-0.416-0.832-0.832V244.048z"/>
			<polygon points="149.104,309.824 129.008,309.824 129.008,268.88 117.536,268.88 117.536,319.424 149.104,319.424 			"/>
			<path d="M174.512,320.256c14.768,0,24.832-10.048,24.832-26.624c0-13.952-8.48-25.568-24-25.568
				c-14.928,0-24.608,11.328-24.608,26.48C150.736,308.928,159.504,320.256,174.512,320.256z M175.024,277.12
				c7.872,0,12.224,7.808,12.224,16.88c0,9.824-4.432,17.168-12.144,17.168c-7.648,0-12.304-6.976-12.304-16.864
				C162.8,284.48,167.312,277.12,175.024,277.12z"/>
			<path d="M211.696,313.12c4.656,4.512,11.328,6.832,20.544,6.832c6.688,0,13.36-1.632,16.88-2.832v-26.624h-18.832v8.912h7.808
				v10.576c-0.896,0.448-3.008,0.752-5.632,0.752c-9.376,0-15.888-6.144-15.888-16.576c0-10.944,7.2-16.352,16.72-16.352
				c5.568,0,9.008,0.976,11.776,2.176l2.4-9.152c-2.464-1.2-7.488-2.48-14.032-2.48c-16.576,0-28.8,9.6-28.864,26.4
				C204.496,302.176,207.04,308.784,211.696,313.12z"/>
			<rect x="258.08" y="268.8" width="11.488" height="50.544"/>
			<path d="M290.016,304.192c0-8.256-0.144-15.376-0.448-22.048l0.224-0.064c2.48,5.92,5.776,12.448,8.768,17.84l10.8,19.504h12
				V268.88h-10.512v14.768c0,7.568,0.224,14.4,0.992,21.072h-0.224c-2.256-5.696-5.248-12-8.256-17.328l-10.512-18.528h-13.344
				v50.544h10.512V304.192z"/>
			<circle cx="369.92" cy="278.672" r="15.408"/>
			<path d="M370,298.368c-14.592,0-26.416,11.824-26.416,26.416h52.832C396.416,310.192,384.592,298.368,370,298.368z"/>
		</g>
	</g>
</g>
<g>
</g>
<g>
</g>
<g>
</g>
<g>
</g>
<g>
</g>
<g>
</g>
<g>
</g>
<g>
</g>
<g>
</g>
<g>
</g>
<g>
</g>
<g>
</g>
<g>
</g>
<g>
</g>
<g>
</g>
</svg>
